<?xml version="1.0" standalone="no"?><svg xmlns="http://www.w3.org/2000/svg" viewBox="0 0 1440 320"><path fill="#FFF" fill-opacity="1" d="M0,64L14.1,101.3C28.2,139,56,213,85,234.7C112.9,256,141,224,169,208C197.6,192,226,192,254,208C282.4,224,311,256,339,234.7C367.1,213,395,139,424,133.3C451.8,128,480,192,508,202.7C536.5,213,565,171,593,160C621.2,149,649,171,678,186.7C705.9,203,734,213,762,186.7C790.6,160,819,96,847,101.3C875.3,107,904,181,932,202.7C960,224,988,192,1016,170.7C1044.7,149,1073,139,1101,149.3C1129.4,160,1158,192,1186,181.3C1214.1,171,1242,117,1271,128C1298.8,139,1327,213,1355,250.7C1383.5,288,1412,288,1426,288L1440,288L1440,320L1425.9,320C1411.8,320,1384,320,1355,320C1327.1,320,1299,320,1271,320C1242.4,320,1214,320,1186,320C1157.6,320,1129,320,1101,320C1072.9,320,1045,320,1016,320C988.2,320,960,320,932,320C903.5,320,875,320,847,320C818.8,320,791,320,762,320C734.1,320,706,320,678,320C649.4,320,621,320,593,320C564.7,320,536,320,508,320C480,320,452,320,424,320C395.3,320,367,320,339,320C310.6,320,282,320,254,320C225.9,320,198,320,169,320C141.2,320,113,320,85,320C56.5,320,28,320,14,320L0,320Z"></path></svg>